<mxfile host="app.diagrams.net" modified="2023-07-16T12:54:39.123Z" agent="Mozilla/5.0 (Macintosh; Intel Mac OS X 10_15_7) AppleWebKit/537.36 (KHTML, like Gecko) Chrome/114.0.0.0 Safari/537.36" etag="kh09IxvzRxt29KEdZ-nZ" version="21.6.2" type="github">
  <diagram name="第 1 页" id="7MqZxgHIHBNX4ZySx4Cy">
    <mxGraphModel dx="1004" dy="479" grid="1" gridSize="10" guides="1" tooltips="1" connect="1" arrows="1" fold="1" page="1" pageScale="1" pageWidth="827" pageHeight="1169" math="0" shadow="0">
      <root>
        <mxCell id="0" />
        <mxCell id="1" parent="0" />
        <mxCell id="8qYdOQDrGCpXGIiek9M1-2" value="节点一" style="rounded=0;whiteSpace=wrap;html=1;" vertex="1" parent="1">
          <mxGeometry x="60" y="110" width="90" height="50" as="geometry" />
        </mxCell>
        <mxCell id="8qYdOQDrGCpXGIiek9M1-3" value="节点二" style="rounded=0;whiteSpace=wrap;html=1;" vertex="1" parent="1">
          <mxGeometry x="60" y="190" width="90" height="50" as="geometry" />
        </mxCell>
        <mxCell id="8qYdOQDrGCpXGIiek9M1-4" value="节点三" style="rounded=0;whiteSpace=wrap;html=1;" vertex="1" parent="1">
          <mxGeometry x="60" y="270" width="90" height="50" as="geometry" />
        </mxCell>
        <mxCell id="8qYdOQDrGCpXGIiek9M1-11" style="rounded=0;orthogonalLoop=1;jettySize=auto;html=1;entryX=0.01;entryY=0.45;entryDx=0;entryDy=0;entryPerimeter=0;" edge="1" parent="1" source="8qYdOQDrGCpXGIiek9M1-5" target="8qYdOQDrGCpXGIiek9M1-9">
          <mxGeometry relative="1" as="geometry" />
        </mxCell>
        <mxCell id="8qYdOQDrGCpXGIiek9M1-5" value="" style="shape=waypoint;sketch=0;fillStyle=solid;size=6;pointerEvents=1;points=[];fillColor=none;resizable=0;rotatable=0;perimeter=centerPerimeter;snapToPoint=1;strokeWidth=5;" vertex="1" parent="1">
          <mxGeometry x="150" y="100" width="20" height="20" as="geometry" />
        </mxCell>
        <mxCell id="8qYdOQDrGCpXGIiek9M1-12" style="rounded=0;orthogonalLoop=1;jettySize=auto;html=1;" edge="1" parent="1" source="8qYdOQDrGCpXGIiek9M1-6">
          <mxGeometry relative="1" as="geometry">
            <mxPoint x="240" y="210" as="targetPoint" />
          </mxGeometry>
        </mxCell>
        <mxCell id="8qYdOQDrGCpXGIiek9M1-6" value="" style="shape=waypoint;sketch=0;fillStyle=solid;size=6;pointerEvents=1;points=[];fillColor=none;resizable=0;rotatable=0;perimeter=centerPerimeter;snapToPoint=1;strokeWidth=5;" vertex="1" parent="1">
          <mxGeometry x="150" y="190" width="20" height="20" as="geometry" />
        </mxCell>
        <mxCell id="8qYdOQDrGCpXGIiek9M1-13" style="rounded=0;orthogonalLoop=1;jettySize=auto;html=1;entryX=0.01;entryY=0.537;entryDx=0;entryDy=0;entryPerimeter=0;" edge="1" parent="1" source="8qYdOQDrGCpXGIiek9M1-7" target="8qYdOQDrGCpXGIiek9M1-9">
          <mxGeometry relative="1" as="geometry">
            <mxPoint x="230" y="210" as="targetPoint" />
          </mxGeometry>
        </mxCell>
        <mxCell id="8qYdOQDrGCpXGIiek9M1-7" value="" style="shape=waypoint;sketch=0;fillStyle=solid;size=6;pointerEvents=1;points=[];fillColor=none;resizable=0;rotatable=0;perimeter=centerPerimeter;snapToPoint=1;strokeWidth=5;" vertex="1" parent="1">
          <mxGeometry x="150" y="270" width="20" height="20" as="geometry" />
        </mxCell>
        <mxCell id="8qYdOQDrGCpXGIiek9M1-9" value="" style="rounded=1;whiteSpace=wrap;html=1;" vertex="1" parent="1">
          <mxGeometry x="240" y="70" width="100" height="280" as="geometry" />
        </mxCell>
        <mxCell id="8qYdOQDrGCpXGIiek9M1-14" value="kafka" style="rounded=1;whiteSpace=wrap;html=1;" vertex="1" parent="1">
          <mxGeometry x="255" y="140" width="70" height="30" as="geometry" />
        </mxCell>
        <mxCell id="8qYdOQDrGCpXGIiek9M1-19" style="edgeStyle=orthogonalEdgeStyle;rounded=0;orthogonalLoop=1;jettySize=auto;html=1;" edge="1" parent="1" source="8qYdOQDrGCpXGIiek9M1-15" target="8qYdOQDrGCpXGIiek9M1-18">
          <mxGeometry relative="1" as="geometry" />
        </mxCell>
        <mxCell id="8qYdOQDrGCpXGIiek9M1-15" value="kafka" style="rounded=1;whiteSpace=wrap;html=1;" vertex="1" parent="1">
          <mxGeometry x="255" y="190" width="70" height="30" as="geometry" />
        </mxCell>
        <mxCell id="8qYdOQDrGCpXGIiek9M1-16" value="kafka" style="rounded=1;whiteSpace=wrap;html=1;" vertex="1" parent="1">
          <mxGeometry x="255" y="240" width="70" height="30" as="geometry" />
        </mxCell>
        <mxCell id="8qYdOQDrGCpXGIiek9M1-17" value="&lt;span style=&quot;font-weight: normal;&quot;&gt;&lt;font style=&quot;font-size: 17px;&quot;&gt;kafka集群&lt;/font&gt;&lt;/span&gt;" style="text;strokeColor=none;fillColor=none;html=1;fontSize=24;fontStyle=1;verticalAlign=middle;align=center;" vertex="1" parent="1">
          <mxGeometry x="240" y="90" width="100" height="40" as="geometry" />
        </mxCell>
        <mxCell id="8qYdOQDrGCpXGIiek9M1-28" style="rounded=0;orthogonalLoop=1;jettySize=auto;html=1;" edge="1" parent="1" source="8qYdOQDrGCpXGIiek9M1-18" target="8qYdOQDrGCpXGIiek9M1-20">
          <mxGeometry relative="1" as="geometry" />
        </mxCell>
        <mxCell id="8qYdOQDrGCpXGIiek9M1-18" value="logstash" style="rounded=1;whiteSpace=wrap;html=1;" vertex="1" parent="1">
          <mxGeometry x="400" y="185" width="80" height="40" as="geometry" />
        </mxCell>
        <mxCell id="8qYdOQDrGCpXGIiek9M1-29" style="edgeStyle=orthogonalEdgeStyle;rounded=0;orthogonalLoop=1;jettySize=auto;html=1;entryX=0;entryY=0.5;entryDx=0;entryDy=0;" edge="1" parent="1" source="8qYdOQDrGCpXGIiek9M1-20" target="8qYdOQDrGCpXGIiek9M1-22">
          <mxGeometry relative="1" as="geometry" />
        </mxCell>
        <mxCell id="8qYdOQDrGCpXGIiek9M1-20" value="" style="rounded=1;whiteSpace=wrap;html=1;" vertex="1" parent="1">
          <mxGeometry x="522.5" y="65" width="100" height="280" as="geometry" />
        </mxCell>
        <mxCell id="8qYdOQDrGCpXGIiek9M1-22" value="Kibana" style="rounded=1;whiteSpace=wrap;html=1;" vertex="1" parent="1">
          <mxGeometry x="670" y="187.5" width="80" height="35" as="geometry" />
        </mxCell>
        <mxCell id="8qYdOQDrGCpXGIiek9M1-24" value="elasticsearch" style="rounded=1;whiteSpace=wrap;html=1;" vertex="1" parent="1">
          <mxGeometry x="535" y="140" width="75" height="30" as="geometry" />
        </mxCell>
        <mxCell id="8qYdOQDrGCpXGIiek9M1-25" value="elasticsearch" style="rounded=1;whiteSpace=wrap;html=1;" vertex="1" parent="1">
          <mxGeometry x="532.5" y="192.5" width="75" height="30" as="geometry" />
        </mxCell>
        <mxCell id="8qYdOQDrGCpXGIiek9M1-26" value="elasticsearch" style="rounded=1;whiteSpace=wrap;html=1;" vertex="1" parent="1">
          <mxGeometry x="532.5" y="240" width="75" height="30" as="geometry" />
        </mxCell>
        <mxCell id="8qYdOQDrGCpXGIiek9M1-30" value="&lt;span style=&quot;font-weight: normal; font-size: 16px;&quot;&gt;&lt;font style=&quot;font-size: 16px;&quot;&gt;elasticsearch&lt;br&gt;集群&lt;/font&gt;&lt;/span&gt;" style="text;strokeColor=none;fillColor=none;html=1;fontSize=24;fontStyle=1;verticalAlign=middle;align=center;" vertex="1" parent="1">
          <mxGeometry x="523" y="90" width="100" height="40" as="geometry" />
        </mxCell>
        <mxCell id="8qYdOQDrGCpXGIiek9M1-31" value="&lt;span style=&quot;font-weight: normal;&quot;&gt;&lt;font style=&quot;font-size: 16px;&quot;&gt;filebeat&lt;/font&gt;&lt;/span&gt;" style="text;strokeColor=none;fillColor=none;html=1;fontSize=24;fontStyle=1;verticalAlign=middle;align=center;" vertex="1" parent="1">
          <mxGeometry x="130" y="65" width="100" height="40" as="geometry" />
        </mxCell>
        <mxCell id="8qYdOQDrGCpXGIiek9M1-32" value="&lt;span style=&quot;color: rgb(0, 0, 0); font-family: Helvetica; font-size: 16px; font-style: normal; font-variant-ligatures: normal; font-variant-caps: normal; font-weight: 400; letter-spacing: normal; orphans: 2; text-align: center; text-indent: 0px; text-transform: none; widows: 2; word-spacing: 0px; -webkit-text-stroke-width: 0px; background-color: rgb(251, 251, 251); text-decoration-thickness: initial; text-decoration-style: initial; text-decoration-color: initial; float: none; display: inline !important;&quot;&gt;filebeat&lt;/span&gt;" style="text;whiteSpace=wrap;html=1;" vertex="1" parent="1">
          <mxGeometry x="150" y="160" width="90" height="40" as="geometry" />
        </mxCell>
        <mxCell id="8qYdOQDrGCpXGIiek9M1-33" value="&lt;span style=&quot;color: rgb(0, 0, 0); font-family: Helvetica; font-size: 16px; font-style: normal; font-variant-ligatures: normal; font-variant-caps: normal; font-weight: 400; letter-spacing: normal; orphans: 2; text-align: center; text-indent: 0px; text-transform: none; widows: 2; word-spacing: 0px; -webkit-text-stroke-width: 0px; background-color: rgb(251, 251, 251); text-decoration-thickness: initial; text-decoration-style: initial; text-decoration-color: initial; float: none; display: inline !important;&quot;&gt;filebeat&lt;/span&gt;" style="text;whiteSpace=wrap;html=1;" vertex="1" parent="1">
          <mxGeometry x="150" y="235" width="90" height="40" as="geometry" />
        </mxCell>
      </root>
    </mxGraphModel>
  </diagram>
</mxfile>
